<svg viewBox="0 0 129.88 129.88" xmlns="http://www.w3.org/2000/svg" xmlns:xlink="http://www.w3.org/1999/xlink"><defs><style>.cls-1{fill:url(#linear-gradient);}.cls-2{fill:url(#linear-gradient-2);}.cls-3{fill:#fff;}.cls-4{fill:#ffcb05;}.cls-4,.cls-5{stroke:#fff;stroke-linecap:round;stroke-linejoin:round;stroke-width:4.6px;}.cls-5{fill:none;}.cls-6{fill:url(#linear-gradient-3);}</style><linearGradient gradientUnits="userSpaceOnUse" id="linear-gradient" x1="21.06" x2="108.86" y1="89.82" y2="39.13"><stop offset="0.02" stop-color="red"/><stop offset="1" stop-color="#9e005d"/></linearGradient><linearGradient id="linear-gradient-2" x1="36.03" x2="76.43" xlink:href="#linear-gradient" y1="56.31" y2="56.31"/><linearGradient id="linear-gradient-3" x1="53.49" x2="93.88" xlink:href="#linear-gradient" y1="72.64" y2="72.64"/></defs><title/><g data-name="Layer 1" id="Layer_1"><path class="cls-1" d="M86.35,13.78H43.57A13.65,13.65,0,0,0,31.75,20.6L10.36,57.65a13.67,13.67,0,0,0,0,13.64l21.39,37.05a13.65,13.65,0,0,0,11.82,6.82H86.35a13.63,13.63,0,0,0,11.81-6.82l21.39-37a13.62,13.62,0,0,0,0-13.64l-21.39-37A13.63,13.63,0,0,0,86.35,13.78Z"/><rect class="cls-2" height="55.54" rx="6.29" width="40.4" x="36.03" y="28.54"/><path class="cls-3" d="M70.14,30.48a4.35,4.35,0,0,1,4.35,4.35v43a4.35,4.35,0,0,1-4.35,4.34H42.32A4.34,4.34,0,0,1,38,77.79v-43a4.34,4.34,0,0,1,4.34-4.35H70.14m0-3.89H42.32a8.25,8.25,0,0,0-8.23,8.24v43A8.24,8.24,0,0,0,42.32,86H70.14a8.24,8.24,0,0,0,8.23-8.23v-43a8.25,8.25,0,0,0-8.23-8.24Z"/><line class="cls-4" x1="47.63" x2="65.23" y1="36.56" y2="36.56"/><line class="cls-5" x1="44.41" x2="44.41" y1="71.14" y2="45.25"/><path class="cls-6" d="M59.78,100.41a6.3,6.3,0,0,1-6.29-6.29v-43a6.29,6.29,0,0,1,6.29-6.29H79.6a1.91,1.91,0,0,1,1.37.57L93.32,57.78a2,2,0,0,1,.56,1.38v35a6.3,6.3,0,0,1-6.29,6.29Z"/><path class="cls-3" d="M79.6,46.81,91.94,59.16v35a4.34,4.34,0,0,1-4.35,4.34H59.78a4.35,4.35,0,0,1-4.35-4.34v-43a4.35,4.35,0,0,1,4.35-4.35H79.6m0-3.88H59.78a8.24,8.24,0,0,0-8.23,8.23v43a8.24,8.24,0,0,0,8.23,8.23H87.59a8.25,8.25,0,0,0,8.24-8.23v-35a3.87,3.87,0,0,0-1.14-2.75L82.34,44.06a3.88,3.88,0,0,0-2.74-1.13Z"/><path class="cls-3" d="M81.09,48.3l9.09,9.09H85.4a4.31,4.31,0,0,1-4.31-4.31V48.3m0-3.88A3.87,3.87,0,0,0,77.2,48.3v4.78a8.21,8.21,0,0,0,8.2,8.2h4.78a3.89,3.89,0,0,0,2.75-6.64l-9.09-9.09a3.91,3.91,0,0,0-2.75-1.13Z"/><line class="cls-4" x1="63.76" x2="83.61" y1="65.66" y2="65.66"/><line class="cls-4" x1="63.76" x2="83.61" y1="72.98" y2="72.98"/><line class="cls-4" x1="63.76" x2="83.61" y1="80.3" y2="80.3"/><line class="cls-4" x1="63.76" x2="83.61" y1="87.62" y2="87.62"/><line class="cls-5" x1="63.82" x2="71.66" y1="51.87" y2="51.87"/></g></svg>
